<svg id="svg" xmlns="http://www.w3.org/2000/svg" xmlns:xlink="http://www.w3.org/1999/xlink" width="400" height="209" viewBox="0, 0, 400,209"><g id="svgg"><path id="path0" d="M72.842 78.216 C 68.935 79.428,65.879 82.445,64.668 86.285 C 63.636 89.559,63.641 119.100,64.674 122.446 C 68.149 133.697,85.521 132.922,88.479 121.385 L 88.851 119.936 91.505 122.718 C 97.620 129.127,100.146 130.667,104.541 130.667 C 112.019 130.667,117.420 124.792,116.928 117.193 C 116.684 113.424,115.915 112.141,110.835 107.013 L 106.359 102.496 108.398 101.895 C 118.911 98.797,119.919 83.415,109.911 78.793 L 107.833 77.833 91.167 77.767 C 76.947 77.711,74.257 77.777,72.842 78.216 M79.223 86.173 C 81.363 87.575,81.331 87.298,81.332 104.094 C 81.333 120.952,81.322 121.057,79.270 122.344 C 76.099 124.333,71.962 122.349,71.504 118.619 C 70.981 114.358,71.465 88.898,72.090 87.753 C 73.476 85.218,76.682 84.508,79.223 86.173 M107.115 85.768 C 110.401 87.924,109.951 93.643,106.413 94.671 C 105.621 94.901,102.191 94.997,97.000 94.933 L 88.833 94.833 88.758 93.000 C 88.600 89.174,88.373 86.473,88.147 85.730 L 87.912 84.960 97.055 85.063 C 105.199 85.155,106.298 85.232,107.115 85.768 M151.233 89.205 C 150.195 89.524,149.056 90.253,147.986 91.285 C 146.223 92.984,146.254 92.995,145.845 90.573 L 145.632 89.312 141.900 89.406 L 138.167 89.500 138.080 104.083 L 137.993 118.667 142.496 118.667 L 147.000 118.667 147.000 110.894 C 147.000 101.009,147.381 99.510,150.273 98.018 C 151.350 97.462,154.337 97.520,155.785 98.125 C 156.956 98.614,157.001 98.607,157.152 97.899 C 157.703 95.316,158.667 90.171,158.667 89.815 C 158.667 88.794,153.855 88.399,151.233 89.205 M209.911 89.008 C 208.110 89.463,206.162 90.522,204.703 91.840 L 203.436 92.985 203.027 91.159 L 202.619 89.333 198.809 89.333 L 195.000 89.333 195.000 104.000 L 195.000 118.667 199.500 118.667 L 204.000 118.667 204.000 110.561 C 204.000 98.708,205.341 95.843,210.442 96.800 C 213.539 97.382,214.000 99.079,214.000 109.914 L 214.000 118.667 218.531 118.667 L 223.062 118.667 222.929 107.750 C 222.780 95.517,222.628 94.633,220.179 91.771 C 218.159 89.412,213.394 88.130,209.911 89.008 M281.008 89.180 C 267.132 93.071,266.877 115.345,280.667 119.011 C 284.417 120.008,289.418 119.076,291.871 116.923 L 293.020 115.914 293.560 117.290 L 294.101 118.667 298.051 118.667 L 302.000 118.667 302.000 104.000 L 302.000 89.333 297.886 89.333 L 293.772 89.333 293.372 90.671 L 292.971 92.008 291.735 91.017 C 289.211 88.993,284.532 88.191,281.008 89.180 M162.189 90.498 C 161.435 94.516,162.214 111.381,163.263 113.753 C 166.013 119.968,175.061 121.444,180.204 116.516 L 181.678 115.103 182.196 116.885 L 182.714 118.667 186.357 118.667 L 190.000 118.667 190.000 104.000 L 190.000 89.333 185.691 89.333 L 181.382 89.333 181.275 98.083 C 181.134 109.483,180.324 111.482,175.848 111.472 C 171.583 111.463,171.191 110.420,171.064 98.750 L 170.962 89.333 166.685 89.333 L 162.408 89.333 162.189 90.498 M225.560 92.907 C 226.200 94.883,228.368 101.487,230.378 107.583 L 234.033 118.667 238.683 118.667 C 241.241 118.667,243.333 118.628,243.333 118.581 C 243.333 118.481,246.909 108.412,247.210 107.667 C 247.323 107.386,248.247 109.652,249.317 112.833 L 251.222 118.500 255.979 118.500 L 260.735 118.500 265.493 104.000 L 270.250 89.500 266.060 89.406 C 263.755 89.355,261.700 89.377,261.493 89.456 C 261.287 89.536,260.008 93.890,258.652 99.134 C 257.295 104.377,256.100 108.667,255.996 108.667 C 255.892 108.667,254.544 104.317,253.000 99.000 L 250.194 89.333 245.763 89.333 C 243.327 89.333,241.333 89.465,241.333 89.627 C 241.333 89.788,241.840 91.326,242.460 93.044 L 243.586 96.167 241.245 102.591 C 239.958 106.124,238.842 108.953,238.767 108.878 C 238.691 108.802,237.474 104.411,236.062 99.120 L 233.495 89.500 228.946 89.407 L 224.397 89.315 225.560 92.907 M305.000 89.806 C 305.000 90.065,305.317 91.003,305.704 91.889 C 306.460 93.620,310.662 103.589,314.193 112.031 L 316.367 117.228 314.017 123.574 C 312.724 127.065,311.667 130.051,311.667 130.211 C 311.667 130.863,320.259 130.763,320.608 130.107 C 320.786 129.773,324.233 120.725,328.269 110.000 C 332.305 99.275,335.711 90.237,335.839 89.917 C 336.054 89.378,335.714 89.333,331.380 89.333 L 326.688 89.333 323.777 98.338 C 322.127 103.440,320.761 107.157,320.626 106.915 C 320.494 106.680,319.005 102.628,317.316 97.910 L 314.245 89.333 309.622 89.333 C 305.856 89.333,305.000 89.421,305.000 89.806 M288.167 96.701 C 295.445 98.689,294.772 110.877,287.344 111.590 C 282.581 112.048,279.553 109.161,279.529 104.140 C 279.505 98.774,283.418 95.404,288.167 96.701 M102.109 108.965 C 105.744 112.559,108.931 115.905,109.192 116.400 C 111.007 119.843,106.339 124.709,102.895 122.965 C 102.494 122.762,99.129 119.576,95.417 115.884 L 88.667 109.173 88.671 106.503 C 88.679 102.132,88.533 102.298,92.292 102.370 L 95.500 102.431 102.109 108.965 " stroke="none" fill="#000000" fill-rule="evenodd"></path></g></svg>